<svg width="697" height="214" viewBox="0 0 697 214" fill="none" xmlns="http://www.w3.org/2000/svg">
<g clip-path="url(#clip0_24_2)">
<path d="M301.094 73.367C308.046 73.367 314.208 74.473 319.58 76.685C325.11 78.739 329.771 81.662 333.563 85.454C337.513 89.246 340.515 93.828 342.569 99.2C344.623 104.572 345.65 110.655 345.65 117.449V149.918C345.65 156.554 344.623 162.637 342.569 168.167C340.515 173.539 337.513 178.2 333.563 182.15C329.771 185.942 325.11 188.865 319.58 190.919C314.208 192.973 308.046 194 301.094 194H291.614C284.662 194 278.421 192.973 272.891 190.919C267.519 188.865 262.858 185.942 258.908 182.15C255.116 178.2 252.193 173.539 250.139 168.167C248.085 162.637 247.058 156.554 247.058 149.918V117.449V115.553V32.603H275.024V76.448C280.87 74.394 287.032 73.367 293.51 73.367H301.094ZM291.614 100.622C286.558 100.622 282.529 102.202 279.527 105.362C276.683 108.522 275.182 112.551 275.024 117.449V148.97C275.024 154.184 276.525 158.45 279.527 161.768C282.529 165.086 286.558 166.745 291.614 166.745H301.094C306.15 166.745 310.258 165.086 313.418 161.768C316.578 158.45 318.158 154.184 318.158 148.97V118.16C318.158 112.946 316.578 108.759 313.418 105.599C310.258 102.281 306.15 100.622 301.094 100.622H291.614ZM413.747 100.385C409.639 100.385 406.242 100.938 403.556 102.044C401.028 102.992 399.053 104.335 397.631 106.073C396.209 107.811 395.182 109.944 394.55 112.472C394.076 114.842 393.839 117.449 393.839 120.293V194H366.11V73.367H393.839V76.448C399.369 74.394 405.294 73.367 411.614 73.367H423.938C430.89 73.367 437.052 74.552 442.424 76.922C447.796 79.292 452.22 82.452 455.696 86.402C459.33 90.194 462.016 94.618 463.754 99.674C465.65 104.572 466.598 109.549 466.598 114.605V194H438.869V120.293C438.869 117.449 438.632 114.842 438.158 112.472C437.684 109.944 436.736 107.811 435.314 106.073C434.05 104.335 432.154 102.992 429.626 102.044C427.098 100.938 423.701 100.385 419.435 100.385H413.747ZM481.258 111.524C481.732 106.468 482.838 101.649 484.576 97.067C486.472 92.485 489.158 88.456 492.634 84.98C496.11 81.504 500.455 78.739 505.669 76.685C510.883 74.473 516.887 73.367 523.681 73.367H537.901C545.011 73.367 551.173 74.552 556.387 76.922C561.759 79.292 566.183 82.452 569.659 86.402C573.135 90.194 575.742 94.618 577.48 99.674C579.218 104.572 580.087 109.549 580.087 114.605V194H512.779C507.565 194 502.904 193.052 498.796 191.156C494.688 189.102 491.212 186.495 488.368 183.335C485.682 180.017 483.628 176.146 482.206 171.722C480.942 167.298 480.31 162.558 480.31 157.502C480.31 152.604 481.021 148.022 482.443 143.756C483.865 139.49 485.919 135.856 488.605 132.854C491.291 129.694 494.609 127.245 498.559 125.507C502.667 123.611 507.249 122.663 512.305 122.663H552.832V120.293C552.832 117.449 552.595 114.842 552.121 112.472C551.647 109.944 550.778 107.811 549.514 106.073C548.25 104.335 546.354 102.992 543.826 102.044C541.298 100.938 537.901 100.385 533.635 100.385H527.71C521.39 100.385 516.887 101.333 514.201 103.229C511.515 104.967 509.698 107.732 508.75 111.524H481.258ZM505.669 157.502C505.669 161.61 506.459 164.691 508.039 166.745C509.777 168.641 511.673 169.589 513.727 169.589H552.832V145.415H513.727C511.673 145.415 509.777 146.442 508.039 148.496C506.459 150.55 505.669 153.552 505.669 157.502ZM658.623 133.802C664.153 143.756 669.762 153.789 675.45 163.901C681.138 174.013 686.668 184.046 692.04 194H663.6L642.744 152.999L621.888 194H593.448L625.443 134.276L593.448 73.367H621.888L642.744 115.553L663.6 73.367H692.277L658.623 133.802Z" fill="black"/>
<path d="M80.813 3.14646C81.9164 1.23141 83.9583 0.0512694 86.1685 0.0512695L138.634 0.0512718C143.394 0.051272 146.368 5.20663 143.984 9.32722L38.6404 191.425C36.2651 195.531 30.3413 195.542 27.9513 191.444L1.77061 146.561C0.654023 144.647 0.647709 142.281 1.75406 140.361L80.813 3.14646Z" fill="#2E4CE5"/>
<path d="M154.522 153.05C155.631 151.129 155.626 148.761 154.508 146.845L128.325 101.957C125.936 97.8611 120.015 97.8694 117.638 101.972L58.1421 204.633C55.7544 208.753 58.7263 213.912 63.4882 213.913L115.805 213.927C118.014 213.927 120.055 212.749 121.159 210.836L154.522 153.05Z" fill="#2E4CE5"/>
</g>
<defs>
<clipPath id="clip0_24_2">
<rect width="697" height="214" fill="white"/>
</clipPath>
</defs>
</svg>
